# xmcd
#
# Track frame offsets:
#	150
#	13278
#	28527
#	46472
#	65152
#	82829
#	99334
#	113740
#	126643
#	139247
#	159966
#	173027
#	188331
#	208512
#	226966
#	241747
#	262527
#
# Disc length: 3815 seconds
#
# Revision: 0
# Processed by: cddbd v1.5.2PL0 Copyright (c) Steve Scherf et al.
# Submitted via: audiograbber 1.83.01
#
DISCID=d50ee511
DTITLE=Μελινα Κανα - Τα Μεταξωτα Τραγουδια
DYEAR=2003
DGENRE=
TTITLE0=Μελινα Κανα - Αερικο
TTITLE1=Μελινα Κανα - Να βαλω τα μεταξωτα
TTITLE2=Μελινα Κανα - Γελα ψυχη μου
TTITLE3=Μελινα Κανα - Φειρουζ
TTITLE4=Μελινα Κανα - Αχ να περασει ο πυρετος
TTITLE5=Μελινα Κανα - Λενε
TTITLE6=Μελινα Κανα - Απ' τα κρυμμενα να σωθεις
TTITLE7=Μελινα Κανα - Ο χαρτης
TTITLE8=Μελινα Κανα - Μαλαματενια ζωη
TTITLE9=Μελινα Κανα - Βαλε κρασι
TTITLE10=Μελινα Κανα - Αργα το βραδυ
TTITLE11=Μελινα Κανα - Το μαγαζι
TTITLE12=Μελινα Κανα - Μιλω για σενα
TTITLE13=Μελινα Κανα - Σωμα που χορευεις
TTITLE14=Μελινα Κανα feat Σωκρατης Μαλαμας - Επιασε βροχη
TTITLE15=Μελινα Κανα - Εισαι γλυκο του κουταλιου
TTITLE16=Μελινα Κανα - Το λευκο το κυπαρισσι
EXTD=
EXTT0=
EXTT1=
EXTT2=
EXTT3=
EXTT4=
EXTT5=
EXTT6=
EXTT7=
EXTT8=
EXTT9=
EXTT10=
EXTT11=
EXTT12=
EXTT13=
EXTT14=
EXTT15=
EXTT16=
PLAYORDER=
